<?xml version="1.0" encoding="UTF-8" standalone="no"?>
<!DOCTYPE svg PUBLIC "-//W3C//DTD SVG 1.1//EN" "http://www.w3.org/Graphics/SVG/1.1/DTD/svg11.dtd">
<svg width="100%" height="100%" viewBox="0 0 1054 178" version="1.1" xmlns="http://www.w3.org/2000/svg" xmlns:xlink="http://www.w3.org/1999/xlink" xml:space="preserve" xmlns:serif="http://www.serif.com/" style="fill-rule:evenodd;clip-rule:evenodd;stroke-linejoin:round;stroke-miterlimit:2;">
    <g transform="matrix(1,0,0,1,-834.962,-1725.02)">
        <g transform="matrix(0.291371,0,0,0.291371,775.646,1542.75)">
            <g transform="matrix(626.358,0,0,626.358,184.784,1115.37)">
                <path d="M0.937,-0.708L0.937,-0.688C0.917,-0.687 0.902,-0.685 0.891,-0.681C0.881,-0.676 0.874,-0.668 0.871,-0.657C0.868,-0.645 0.866,-0.627 0.866,-0.602L0.866,-0.106C0.866,-0.082 0.868,-0.064 0.872,-0.052C0.875,-0.04 0.882,-0.032 0.892,-0.028C0.902,-0.024 0.917,-0.021 0.937,-0.02L0.937,-0C0.916,-0.001 0.89,-0.002 0.858,-0.003C0.826,-0.003 0.793,-0.003 0.76,-0.003C0.724,-0.003 0.69,-0.003 0.659,-0.003C0.627,-0.002 0.601,-0.001 0.582,-0L0.582,-0.02C0.605,-0.021 0.622,-0.024 0.633,-0.028C0.645,-0.032 0.653,-0.04 0.657,-0.052C0.661,-0.064 0.663,-0.082 0.663,-0.106L0.663,-0.641L0.673,-0.643L0.422,-0.001L0.406,-0.001L0.124,-0.643L0.124,-0.196C0.124,-0.151 0.126,-0.117 0.13,-0.094C0.133,-0.07 0.142,-0.053 0.157,-0.043C0.171,-0.032 0.194,-0.025 0.225,-0.02L0.225,-0C0.212,-0.001 0.194,-0.002 0.173,-0.003C0.152,-0.003 0.132,-0.003 0.113,-0.003C0.098,-0.003 0.083,-0.003 0.068,-0.003C0.053,-0.002 0.04,-0.001 0.03,-0L0.03,-0.02C0.051,-0.025 0.066,-0.032 0.076,-0.042C0.086,-0.051 0.093,-0.067 0.096,-0.088C0.099,-0.109 0.101,-0.139 0.101,-0.176L0.101,-0.602C0.101,-0.627 0.099,-0.645 0.096,-0.657C0.093,-0.668 0.086,-0.676 0.076,-0.681C0.065,-0.685 0.05,-0.687 0.03,-0.688L0.03,-0.708C0.04,-0.707 0.053,-0.707 0.068,-0.706C0.083,-0.705 0.098,-0.705 0.113,-0.705C0.152,-0.705 0.189,-0.705 0.224,-0.706C0.259,-0.707 0.291,-0.707 0.32,-0.708L0.518,-0.262L0.488,-0.229L0.673,-0.705L0.76,-0.705C0.793,-0.705 0.826,-0.705 0.858,-0.706C0.89,-0.707 0.916,-0.707 0.937,-0.708Z" style="fill:rgb(140,105,170);fill-rule:nonzero;"/>
            </g>
            <g transform="matrix(626.358,0,0,626.358,789.22,1115.37)">
                <path d="M0.161,-0.782C0.196,-0.782 0.223,-0.775 0.242,-0.76C0.261,-0.746 0.27,-0.725 0.27,-0.696C0.27,-0.667 0.261,-0.646 0.242,-0.631C0.223,-0.617 0.196,-0.61 0.161,-0.61C0.126,-0.61 0.1,-0.617 0.081,-0.631C0.062,-0.646 0.052,-0.667 0.052,-0.696C0.052,-0.725 0.062,-0.746 0.081,-0.76C0.1,-0.775 0.126,-0.782 0.161,-0.782ZM0.257,-0.53L0.257,-0.093C0.257,-0.065 0.261,-0.046 0.27,-0.036C0.278,-0.026 0.292,-0.021 0.313,-0.021L0.313,-0C0.3,-0.001 0.28,-0.002 0.253,-0.003C0.226,-0.004 0.199,-0.004 0.171,-0.004C0.143,-0.004 0.115,-0.004 0.086,-0.003C0.057,-0.002 0.036,-0.001 0.021,-0L0.021,-0.021C0.042,-0.021 0.056,-0.026 0.065,-0.036C0.073,-0.046 0.077,-0.065 0.077,-0.093L0.077,-0.41C0.077,-0.44 0.073,-0.462 0.065,-0.476C0.057,-0.491 0.042,-0.498 0.021,-0.498L0.021,-0.519C0.042,-0.517 0.063,-0.516 0.083,-0.516C0.116,-0.516 0.148,-0.517 0.177,-0.52C0.205,-0.522 0.232,-0.525 0.257,-0.53Z" style="fill:rgb(140,105,170);fill-rule:nonzero;"/>
            </g>
            <g transform="matrix(626.358,0,0,626.358,995.918,1115.37)">
                <path d="M0.416,-0.533C0.447,-0.533 0.471,-0.529 0.489,-0.522C0.506,-0.514 0.52,-0.504 0.529,-0.493C0.539,-0.481 0.546,-0.465 0.551,-0.445C0.556,-0.425 0.558,-0.398 0.558,-0.364L0.558,-0.093C0.558,-0.065 0.562,-0.046 0.571,-0.036C0.579,-0.026 0.593,-0.021 0.614,-0.021L0.614,-0C0.601,-0.001 0.581,-0.002 0.554,-0.003C0.527,-0.004 0.5,-0.004 0.474,-0.004C0.446,-0.004 0.419,-0.004 0.392,-0.003C0.365,-0.002 0.345,-0.001 0.332,-0L0.332,-0.021C0.349,-0.021 0.361,-0.026 0.368,-0.036C0.375,-0.046 0.378,-0.065 0.378,-0.093L0.378,-0.418C0.378,-0.432 0.376,-0.444 0.373,-0.453C0.37,-0.462 0.365,-0.469 0.358,-0.474C0.35,-0.479 0.341,-0.481 0.329,-0.481C0.31,-0.481 0.294,-0.474 0.279,-0.461C0.264,-0.448 0.257,-0.43 0.257,-0.409L0.257,-0.093C0.257,-0.065 0.261,-0.046 0.268,-0.036C0.275,-0.026 0.286,-0.021 0.303,-0.021L0.303,-0C0.29,-0.001 0.272,-0.002 0.247,-0.003C0.222,-0.004 0.197,-0.004 0.171,-0.004C0.143,-0.004 0.115,-0.004 0.086,-0.003C0.057,-0.002 0.036,-0.001 0.021,-0L0.021,-0.021C0.042,-0.021 0.056,-0.026 0.065,-0.036C0.073,-0.046 0.077,-0.065 0.077,-0.093L0.077,-0.41C0.077,-0.44 0.073,-0.462 0.065,-0.476C0.057,-0.491 0.042,-0.498 0.021,-0.498L0.021,-0.519C0.042,-0.517 0.063,-0.516 0.083,-0.516C0.116,-0.516 0.148,-0.517 0.177,-0.52C0.205,-0.522 0.232,-0.525 0.257,-0.53L0.257,-0.458C0.273,-0.485 0.295,-0.504 0.322,-0.516C0.348,-0.527 0.38,-0.533 0.416,-0.533Z" style="fill:rgb(140,105,170);fill-rule:nonzero;"/>
            </g>
            <g transform="matrix(626.358,0,0,626.358,1387.39,1115.37)">
                <path d="M0.537,-0.782L0.537,-0.11C0.537,-0.08 0.541,-0.058 0.55,-0.043C0.558,-0.029 0.572,-0.022 0.593,-0.022L0.593,-0.001C0.572,-0.003 0.552,-0.004 0.531,-0.004C0.498,-0.004 0.467,-0.003 0.438,-0.001C0.409,0.001 0.382,0.005 0.357,0.01L0.357,-0.662C0.357,-0.692 0.353,-0.714 0.345,-0.729C0.337,-0.743 0.322,-0.75 0.301,-0.75L0.301,-0.771C0.322,-0.769 0.343,-0.768 0.363,-0.768C0.396,-0.768 0.428,-0.769 0.457,-0.772C0.486,-0.774 0.512,-0.777 0.537,-0.782ZM0.253,-0.533C0.282,-0.533 0.307,-0.53 0.327,-0.523C0.347,-0.516 0.365,-0.504 0.38,-0.489L0.369,-0.478C0.36,-0.485 0.351,-0.491 0.34,-0.495C0.329,-0.498 0.319,-0.5 0.31,-0.5C0.279,-0.5 0.256,-0.48 0.241,-0.441C0.226,-0.402 0.218,-0.341 0.218,-0.26C0.218,-0.201 0.221,-0.156 0.227,-0.124C0.233,-0.091 0.241,-0.069 0.252,-0.057C0.262,-0.044 0.273,-0.038 0.285,-0.038C0.304,-0.038 0.32,-0.045 0.335,-0.059C0.35,-0.072 0.357,-0.089 0.357,-0.11L0.357,-0.061C0.344,-0.036 0.327,-0.017 0.308,-0.005C0.289,0.008 0.264,0.014 0.235,0.014C0.197,0.014 0.163,0.004 0.132,-0.015C0.101,-0.034 0.076,-0.063 0.058,-0.104C0.04,-0.145 0.031,-0.198 0.031,-0.263C0.031,-0.324 0.04,-0.374 0.059,-0.413C0.077,-0.453 0.103,-0.483 0.136,-0.503C0.169,-0.523 0.208,-0.533 0.253,-0.533Z" style="fill:rgb(140,105,170);fill-rule:nonzero;"/>
            </g>
            <g transform="matrix(626.358,0,0,626.358,1768.84,1115.37)">
                <path d="M0.705,-0.708L0.705,-0.688C0.69,-0.681 0.673,-0.666 0.655,-0.645C0.637,-0.623 0.62,-0.591 0.605,-0.548L0.41,-0C0.402,-0.001 0.394,-0.001 0.385,-0.002C0.376,-0.002 0.366,-0.002 0.357,-0.002C0.348,-0.002 0.34,-0.002 0.331,-0.002C0.322,-0.001 0.313,-0.001 0.305,-0L0.043,-0.624C0.034,-0.647 0.024,-0.664 0.014,-0.673C0.003,-0.682 -0.007,-0.687 -0.016,-0.688L-0.016,-0.708C0.008,-0.707 0.036,-0.707 0.069,-0.706C0.101,-0.705 0.133,-0.705 0.166,-0.705C0.2,-0.705 0.232,-0.705 0.262,-0.706C0.292,-0.707 0.316,-0.707 0.334,-0.708L0.334,-0.688C0.303,-0.687 0.281,-0.681 0.271,-0.672C0.26,-0.663 0.261,-0.64 0.276,-0.604L0.456,-0.161L0.432,-0.13L0.546,-0.45C0.567,-0.509 0.578,-0.555 0.579,-0.59C0.58,-0.624 0.574,-0.649 0.559,-0.664C0.544,-0.679 0.524,-0.687 0.497,-0.688L0.497,-0.708C0.522,-0.707 0.545,-0.707 0.565,-0.706C0.584,-0.705 0.605,-0.705 0.628,-0.705C0.641,-0.705 0.655,-0.705 0.669,-0.706C0.683,-0.707 0.695,-0.707 0.705,-0.708Z" style="fill:rgb(140,105,170);fill-rule:nonzero;"/>
            </g>
            <g transform="matrix(626.358,0,0,626.358,2159.07,1115.37)">
                <path d="M0.288,-0.533C0.347,-0.533 0.393,-0.516 0.427,-0.482C0.46,-0.447 0.477,-0.39 0.477,-0.309L0.164,-0.309L0.162,-0.328L0.331,-0.328C0.332,-0.361 0.33,-0.391 0.327,-0.419C0.324,-0.446 0.318,-0.468 0.311,-0.485C0.304,-0.502 0.294,-0.51 0.281,-0.51C0.263,-0.51 0.248,-0.496 0.237,-0.468C0.226,-0.439 0.218,-0.391 0.215,-0.322L0.219,-0.314C0.218,-0.307 0.218,-0.301 0.218,-0.294L0.218,-0.273C0.218,-0.226 0.224,-0.19 0.235,-0.164C0.247,-0.138 0.262,-0.12 0.28,-0.11C0.297,-0.1 0.315,-0.095 0.333,-0.095C0.346,-0.095 0.364,-0.099 0.387,-0.106C0.41,-0.113 0.432,-0.131 0.454,-0.162L0.471,-0.156C0.463,-0.129 0.45,-0.103 0.433,-0.077C0.415,-0.05 0.392,-0.029 0.364,-0.012C0.336,0.005 0.302,0.014 0.262,0.014C0.219,0.014 0.181,0.005 0.146,-0.012C0.111,-0.029 0.083,-0.058 0.062,-0.098C0.041,-0.138 0.031,-0.192 0.031,-0.259C0.031,-0.323 0.042,-0.375 0.065,-0.416C0.088,-0.456 0.118,-0.486 0.158,-0.504C0.197,-0.524 0.24,-0.533 0.288,-0.533Z" style="fill:rgb(140,105,170);fill-rule:nonzero;"/>
            </g>
            <g transform="matrix(626.358,0,0,626.358,2467.86,1115.37)">
                <path d="M0.386,-0.533C0.41,-0.533 0.429,-0.528 0.442,-0.518C0.455,-0.507 0.465,-0.494 0.47,-0.478C0.475,-0.463 0.478,-0.447 0.478,-0.432C0.478,-0.402 0.469,-0.378 0.453,-0.361C0.436,-0.343 0.413,-0.334 0.386,-0.334C0.357,-0.334 0.335,-0.341 0.32,-0.354C0.305,-0.367 0.297,-0.385 0.297,-0.406C0.297,-0.429 0.302,-0.447 0.312,-0.462C0.321,-0.477 0.333,-0.489 0.348,-0.499C0.336,-0.499 0.325,-0.497 0.316,-0.492C0.305,-0.487 0.296,-0.481 0.286,-0.471C0.278,-0.463 0.27,-0.452 0.265,-0.441C0.26,-0.429 0.257,-0.416 0.257,-0.403L0.257,-0.103C0.257,-0.071 0.264,-0.049 0.277,-0.038C0.29,-0.027 0.312,-0.021 0.343,-0.021L0.343,-0C0.328,-0.001 0.305,-0.002 0.275,-0.003C0.244,-0.004 0.213,-0.004 0.181,-0.004C0.151,-0.004 0.121,-0.004 0.09,-0.003C0.059,-0.002 0.036,-0.001 0.021,-0L0.021,-0.021C0.042,-0.021 0.056,-0.026 0.065,-0.036C0.073,-0.046 0.077,-0.065 0.077,-0.093L0.077,-0.41C0.077,-0.44 0.073,-0.462 0.065,-0.476C0.057,-0.491 0.042,-0.498 0.021,-0.498L0.021,-0.519C0.042,-0.517 0.063,-0.516 0.083,-0.516C0.116,-0.516 0.148,-0.517 0.177,-0.52C0.205,-0.522 0.232,-0.525 0.257,-0.53L0.257,-0.458C0.266,-0.475 0.276,-0.49 0.289,-0.5C0.302,-0.511 0.316,-0.52 0.333,-0.525C0.349,-0.53 0.367,-0.533 0.386,-0.533Z" style="fill:rgb(140,105,170);fill-rule:nonzero;"/>
            </g>
            <g transform="matrix(626.358,0,0,626.358,2769.14,1115.37)">
                <path d="M0.231,-0.533C0.26,-0.533 0.286,-0.53 0.309,-0.524C0.331,-0.517 0.347,-0.511 0.357,-0.506C0.38,-0.492 0.395,-0.501 0.4,-0.532L0.42,-0.532C0.419,-0.513 0.418,-0.489 0.417,-0.462C0.416,-0.434 0.416,-0.397 0.416,-0.352L0.396,-0.352C0.393,-0.377 0.388,-0.401 0.379,-0.425C0.37,-0.449 0.357,-0.469 0.34,-0.485C0.323,-0.501 0.3,-0.509 0.273,-0.509C0.256,-0.509 0.242,-0.504 0.231,-0.494C0.22,-0.484 0.214,-0.47 0.214,-0.453C0.214,-0.433 0.22,-0.415 0.232,-0.4C0.244,-0.384 0.259,-0.369 0.278,-0.355C0.297,-0.34 0.315,-0.325 0.334,-0.309C0.365,-0.284 0.39,-0.26 0.411,-0.235C0.432,-0.21 0.442,-0.179 0.442,-0.14C0.442,-0.11 0.433,-0.083 0.414,-0.06C0.396,-0.037 0.372,-0.019 0.342,-0.006C0.311,0.007 0.277,0.014 0.24,0.014C0.217,0.014 0.196,0.011 0.179,0.006C0.162,0.001 0.148,-0.004 0.137,-0.011C0.126,-0.016 0.117,-0.021 0.11,-0.024C0.102,-0.027 0.094,-0.028 0.087,-0.028C0.08,-0.028 0.075,-0.025 0.07,-0.018C0.065,-0.011 0.062,-0.002 0.059,0.007L0.039,0.007C0.04,-0.014 0.041,-0.04 0.042,-0.071C0.043,-0.102 0.043,-0.142 0.043,-0.193L0.063,-0.193C0.067,-0.158 0.075,-0.126 0.086,-0.099C0.098,-0.072 0.113,-0.05 0.132,-0.035C0.15,-0.019 0.171,-0.011 0.195,-0.011C0.21,-0.011 0.224,-0.016 0.235,-0.025C0.247,-0.034 0.253,-0.047 0.253,-0.066C0.253,-0.095 0.244,-0.12 0.227,-0.14C0.209,-0.16 0.187,-0.182 0.16,-0.206C0.14,-0.225 0.121,-0.243 0.103,-0.261C0.086,-0.278 0.071,-0.298 0.06,-0.319C0.049,-0.34 0.043,-0.363 0.043,-0.389C0.043,-0.419 0.052,-0.445 0.07,-0.466C0.087,-0.487 0.11,-0.504 0.139,-0.516C0.168,-0.527 0.198,-0.533 0.231,-0.533Z" style="fill:rgb(140,105,170);fill-rule:nonzero;"/>
            </g>
            <g transform="matrix(626.358,0,0,626.358,3064.78,1115.37)">
                <path d="M0.161,-0.782C0.196,-0.782 0.223,-0.775 0.242,-0.76C0.261,-0.746 0.27,-0.725 0.27,-0.696C0.27,-0.667 0.261,-0.646 0.242,-0.631C0.223,-0.617 0.196,-0.61 0.161,-0.61C0.126,-0.61 0.1,-0.617 0.081,-0.631C0.062,-0.646 0.052,-0.667 0.052,-0.696C0.052,-0.725 0.062,-0.746 0.081,-0.76C0.1,-0.775 0.126,-0.782 0.161,-0.782ZM0.257,-0.53L0.257,-0.093C0.257,-0.065 0.261,-0.046 0.27,-0.036C0.278,-0.026 0.292,-0.021 0.313,-0.021L0.313,-0C0.3,-0.001 0.28,-0.002 0.253,-0.003C0.226,-0.004 0.199,-0.004 0.171,-0.004C0.143,-0.004 0.115,-0.004 0.086,-0.003C0.057,-0.002 0.036,-0.001 0.021,-0L0.021,-0.021C0.042,-0.021 0.056,-0.026 0.065,-0.036C0.073,-0.046 0.077,-0.065 0.077,-0.093L0.077,-0.41C0.077,-0.44 0.073,-0.462 0.065,-0.476C0.057,-0.491 0.042,-0.498 0.021,-0.498L0.021,-0.519C0.042,-0.517 0.063,-0.516 0.083,-0.516C0.116,-0.516 0.148,-0.517 0.177,-0.52C0.205,-0.522 0.232,-0.525 0.257,-0.53Z" style="fill:rgb(140,105,170);fill-rule:nonzero;"/>
            </g>
            <g transform="matrix(626.358,0,0,626.358,3271.48,1115.37)">
                <path d="M0.252,-0.681L0.252,-0.519L0.35,-0.519L0.35,-0.499L0.252,-0.499L0.252,-0.084C0.252,-0.071 0.254,-0.062 0.259,-0.057C0.264,-0.051 0.271,-0.048 0.282,-0.048C0.289,-0.048 0.298,-0.05 0.308,-0.055C0.318,-0.059 0.327,-0.066 0.336,-0.077L0.351,-0.065C0.337,-0.041 0.319,-0.022 0.296,-0.008C0.273,0.007 0.244,0.014 0.209,0.014C0.187,0.014 0.167,0.011 0.15,0.005C0.132,-0 0.117,-0.009 0.106,-0.02C0.091,-0.035 0.082,-0.053 0.078,-0.075C0.074,-0.096 0.072,-0.124 0.072,-0.159L0.072,-0.499L-0.004,-0.499L-0.004,-0.519L0.072,-0.519L0.072,-0.637C0.107,-0.637 0.14,-0.641 0.169,-0.648C0.198,-0.655 0.225,-0.666 0.252,-0.681Z" style="fill:rgb(140,105,170);fill-rule:nonzero;"/>
            </g>
            <g transform="matrix(626.358,0,0,626.358,3490.7,1115.37)">
                <path d="M0.525,-0.519L0.525,-0.498C0.512,-0.493 0.5,-0.484 0.489,-0.47C0.477,-0.457 0.465,-0.434 0.454,-0.401L0.329,-0.029L0.278,0.088L0.038,-0.442C0.027,-0.467 0.016,-0.483 0.006,-0.489C-0.004,-0.495 -0.013,-0.498 -0.02,-0.498L-0.02,-0.519C0.007,-0.517 0.034,-0.516 0.063,-0.515C0.092,-0.514 0.118,-0.513 0.143,-0.513C0.174,-0.513 0.201,-0.514 0.224,-0.515C0.247,-0.516 0.268,-0.518 0.288,-0.519L0.288,-0.498C0.276,-0.498 0.265,-0.497 0.254,-0.496C0.243,-0.495 0.236,-0.492 0.231,-0.487C0.226,-0.482 0.227,-0.473 0.232,-0.46L0.36,-0.156L0.349,-0.148L0.397,-0.295C0.42,-0.362 0.424,-0.412 0.409,-0.446C0.394,-0.478 0.372,-0.496 0.343,-0.498L0.343,-0.519C0.357,-0.518 0.375,-0.517 0.397,-0.516C0.419,-0.515 0.436,-0.515 0.448,-0.515C0.46,-0.515 0.474,-0.515 0.49,-0.516C0.506,-0.517 0.518,-0.518 0.525,-0.519ZM0.329,-0.029L0.287,0.092C0.275,0.127 0.26,0.151 0.243,0.164C0.234,0.171 0.223,0.176 0.209,0.181C0.194,0.186 0.175,0.188 0.15,0.188C0.131,0.188 0.112,0.185 0.091,0.179C0.07,0.173 0.051,0.163 0.037,0.149C0.021,0.136 0.014,0.117 0.014,0.094C0.014,0.071 0.023,0.052 0.041,0.038C0.059,0.024 0.083,0.017 0.112,0.017C0.139,0.017 0.161,0.023 0.178,0.035C0.194,0.048 0.202,0.066 0.202,0.091C0.202,0.106 0.197,0.12 0.187,0.135C0.176,0.15 0.16,0.161 0.137,0.168C0.142,0.169 0.148,0.169 0.155,0.169C0.162,0.17 0.167,0.17 0.171,0.17C0.192,0.17 0.211,0.163 0.228,0.15C0.245,0.137 0.257,0.117 0.266,0.09L0.301,-0.019L0.329,-0.029Z" style="fill:rgb(140,105,170);fill-rule:nonzero;"/>
            </g>
        </g>
    </g>
</svg>
